<svg xmlns="http://www.w3.org/2000/svg" width="7" height="13" viewBox="0 0 7 13">
  <defs>
    <style>
      .cls-1 {
        fill: #7b0046;
        fill-rule: evenodd;
      }
    </style>
  </defs>
  <path id="right-arrow" class="cls-1" d="M914.126,1533.21l0.6,0.65a0.358,0.358,0,0,0,.552,0l5.6-6.06a0.435,0.435,0,0,0,0-.6l-5.6-6.07a0.358,0.358,0,0,0-.552,0l-0.6.65a0.441,0.441,0,0,0-.12.3,0.407,0.407,0,0,0,.12.3l4.719,5.12-4.719,5.11a0.441,0.441,0,0,0-.12.3,0.407,0.407,0,0,0,.12.3h0Z" transform="translate(-914 -1521)"/>
</svg>
