<svg xmlns="http://www.w3.org/2000/svg" width="17" height="21" viewBox="0 0 17 21">
  <defs>
    <style>
      .cls-1 {
        fill: #00a99d;
        fill-rule: evenodd;
      }
    </style>
  </defs>
  <path id="agenda-icon" class="cls-1" d="M804.385,1833h-11.77a2.622,2.622,0,0,1-2.615-2.62v-15.75a2.624,2.624,0,0,1,2.615-2.63h7.847c0.875-.01,1.223.02,1.307,0.02V1812l5.231,5.25v13.13A2.622,2.622,0,0,1,804.385,1833Zm-2.616-19.69v2.63a1.311,1.311,0,0,0,1.308,1.31h2.615Zm3.923,5.25h-2.615a2.616,2.616,0,0,1-2.615-2.62s-0.031-1.06-.019-2.63h-7.828a1.313,1.313,0,0,0-1.307,1.32v15.75a1.311,1.311,0,0,0,1.307,1.31h11.77a1.311,1.311,0,0,0,1.307-1.31v-11.82Zm-3.269,9.19h-7.846a0.655,0.655,0,0,1,0-1.31h7.846A0.655,0.655,0,0,1,802.423,1827.75Zm0-3.94h-7.846a0.655,0.655,0,0,1,0-1.31h7.846A0.655,0.655,0,0,1,802.423,1823.81Z" transform="translate(-790 -1812)"/>
</svg>
