<svg xmlns="http://www.w3.org/2000/svg" width="9.44" height="9.44" viewBox="0 0 9.44 9.44">
  <defs>
    <style>
      .cls-1 {
        fill: #00a99d;
        fill-rule: evenodd;
      }
    </style>
  </defs>
  <path id="fa-plus_copy_2" data-name="fa-plus copy 2" class="cls-1" d="M1113.24,2483.19a0.6,0.6,0,0,0-.45-0.19H1110v-2.79a0.6,0.6,0,0,0-.19-0.45,0.583,0.583,0,0,0-.45-0.19h-1.29a0.583,0.583,0,0,0-.45.19,0.6,0.6,0,0,0-.19.45V2483h-2.79a0.649,0.649,0,0,0-.64.64v1.29a0.649,0.649,0,0,0,.64.64h2.79v2.79a0.649,0.649,0,0,0,.64.64h1.29a0.649,0.649,0,0,0,.64-0.64v-2.79h2.79a0.6,0.6,0,0,0,.45-0.19,0.583,0.583,0,0,0,.19-0.45v-1.29A0.583,0.583,0,0,0,1113.24,2483.19Z" transform="translate(-1104 -2479.56)"/>
</svg>
